<svg xmlns="http://www.w3.org/2000/svg" version="1.1" xmlns:xlink="http://www.w3.org/1999/xlink" xmlns:svgjs="http://svgjs.dev/svgjs" width="1000" height="179" viewBox="0 0 1000 179"><g transform="matrix(1,0,0,1,-0.6060606060606233,-0.5921423942039468)"><svg viewBox="0 0 396 71" data-background-color="#ffffff" preserveAspectRatio="xMidYMid meet" height="179" width="1000" xmlns="http://www.w3.org/2000/svg" xmlns:xlink="http://www.w3.org/1999/xlink"><g id="tight-bounds" transform="matrix(1,0,0,1,0.2400000000000091,0.23487212284067027)"><svg viewBox="0 0 395.52 70.53025575431869" height="70.53025575431869" width="395.52"><g><svg viewBox="0 0 522.3061983159 93.13913265899657" height="70.53025575431869" width="395.52"><g><rect width="4.892921856258006" height="93.13913265899657" x="109.08458050085144" y="0" fill="#028502" opacity="1" stroke-width="0" stroke="transparent" fill-opacity="1" class="rect-r$-0" data-fill-palette-color="primary" rx="1%" id="r$-0" data-palette-color="#028502"></rect></g><g transform="matrix(1,0,0,1,126.78619831590004,0.23168938472386458)"><svg viewBox="0 0 395.52 92.67575388954884" height="92.67575388954884" width="395.52"><g id="textblocktransform"><svg viewBox="0 0 395.52 92.67575388954884" height="92.67575388954884" width="395.52" id="textblock"><g><svg viewBox="0 0 395.52 54.25666293393056" height="54.25666293393056" width="395.52"><g transform="matrix(1,0,0,1,0,0)"><svg width="395.52" viewBox="1.05 -36.15 270.63 36.75" height="54.25666293393056" data-palette-color="#028502"><g class="wordmark-text-0" data-fill-palette-color="primary" id="text-0"><path d="M11.65 0L11.65-28.05 1.05-28.05 1.05-34.3 29.5-34.3 29.5-28.05 18.9-28.05 18.9 0 11.65 0ZM34.1 0L34.1-26.3 39.95-26.3 40.5-22.05 40.85-22.05Q41.7-24.3 43.05-25.6 44.4-26.9 46.6-26.9L46.6-26.9Q48.05-26.9 49.2-26.45L49.2-26.45 49.2-20.05 47.3-20.05Q43.95-20.05 42.45-18.23 40.95-16.4 40.95-12.7L40.95-12.7 40.95 0 34.1 0ZM59.6 0.6Q56.55 0.6 54-1 51.45-2.6 51.45-6.8L51.45-6.8Q51.45-11.85 55.6-13.98 59.75-16.1 67.34-16.1L67.34-16.1 67.34-17.95Q67.34-19.7 66.57-20.65 65.8-21.6 63.65-21.6L63.65-21.6Q61.35-21.6 60.37-20.9 59.4-20.2 59.4-19.25L59.4-19.25 59.4-18.5 52.8-18.5Q52.75-18.8 52.75-19.6L52.75-19.6Q52.75-22.9 55.67-24.9 58.6-26.9 63.45-26.9L63.45-26.9Q68.84-26.9 71.52-24.7 74.2-22.5 74.2-18.35L74.2-18.35 74.2-6.75Q74.2-5.85 74.7-5.43 75.2-5 75.95-5L75.95-5 77.34-5 77.34-0.2Q75.75 0.6 73.4 0.6L73.4 0.6Q71.34 0.6 69.97-0.3 68.59-1.2 68.09-2.85L68.09-2.85 67.8-2.85Q66.34-1.15 64.47-0.28 62.6 0.6 59.6 0.6L59.6 0.6ZM61.75-4.8Q64.65-4.8 66-6.43 67.34-8.05 67.34-10.75L67.34-10.75 67.34-11.55Q58.4-11.55 58.4-7.55L58.4-7.55Q58.4-6.3 59.22-5.55 60.05-4.8 61.75-4.8L61.75-4.8ZM91.84 0.6Q86.34 0.6 83.22-1.68 80.09-3.95 80.09-7.75L80.09-7.75 80.14-8.35 86.79-8.35 86.79-8Q86.84-6.25 88.37-5.48 89.89-4.7 92.09-4.7L92.09-4.7Q94.14-4.7 95.59-5.25 97.04-5.8 97.04-7.05L97.04-7.05Q97.04-8.45 95.57-9.15 94.09-9.85 90.94-10.55L90.94-10.55Q87.69-11.3 85.64-12.08 83.59-12.85 82.09-14.5 80.59-16.15 80.59-18.9L80.59-18.9Q80.59-22.75 83.82-24.83 87.04-26.9 92.14-26.9L92.14-26.9Q96.89-26.9 99.99-24.98 103.09-23.05 103.09-19.75L103.09-19.75 103.04-18.6 96.39-18.6 96.39-18.9Q96.39-20.2 95.17-20.9 93.94-21.6 91.89-21.6L91.89-21.6Q89.84-21.6 88.64-21.05 87.44-20.5 87.44-19.5L87.44-19.5Q87.44-18.25 88.82-17.65 90.19-17.05 93.24-16.45L93.24-16.45Q96.59-15.7 98.69-14.95 100.79-14.2 102.34-12.5 103.89-10.8 103.89-7.9L103.89-7.9Q103.89 0.6 91.84 0.6L91.84 0.6ZM109.14 0L109.14-36.15 115.99-36.15 115.99-23.25 116.34-23.25Q119.34-26.9 124.04-26.9L124.04-26.9Q128.09-26.9 130.42-24.7 132.74-22.5 132.74-17.65L132.74-17.65 132.74 0 125.89 0 125.89-16.2Q125.89-18.65 124.74-19.75 123.59-20.85 121.34-20.85L121.34-20.85Q119.04-20.85 117.52-19.23 115.99-17.6 115.99-15.2L115.99-15.2 115.99 0 109.14 0ZM138.29 0L138.29-1.8Q138.29-4.65 139.54-6.93 140.79-9.2 142.61-10.9 144.44-12.6 147.39-14.75L147.39-14.75Q149.94-16.7 151.41-18 152.89-19.3 153.89-20.85L153.89-20.85Q155.14-22.8 155.14-25.25L155.14-25.25Q155.14-26.85 153.96-28.08 152.79-29.3 150.59-29.3L150.59-29.3Q145.64-29.3 145.64-24.55L145.64-24.55 145.64-22.5 138.84-22.5Q138.64-23.4 138.64-24.5L138.64-24.5Q138.64-29.7 142.11-32.3 145.59-34.9 150.89-34.9L150.89-34.9Q155.54-34.9 158.04-33.1 160.54-31.3 161.31-29.05 162.09-26.8 162.09-24.85L162.09-24.85Q162.09-21.4 160.54-18.73 158.99-16.05 156.86-14.23 154.74-12.4 151.59-10.25L151.59-10.25Q149.19-8.6 147.99-7.55L147.99-7.55Q147.14-6.8 146.74-6.1L146.74-6.1 162.29-6.1 162.29 0 138.29 0ZM182.64 0.6Q174.69 0.6 170.36-3.75 166.04-8.1 166.04-17.15L166.04-17.15Q166.04-26 170.64-30.45 175.24-34.9 183.64-34.9L183.64-34.9Q188.09-34.9 191.76-33.52 195.44-32.15 197.61-29.38 199.79-26.6 199.79-22.6L199.79-22.6 192.29-22.6Q192.29-25.4 189.81-27.08 187.34-28.75 183.89-28.75L183.89-28.75Q178.64-28.75 176.06-25.95 173.49-23.15 173.49-17.9L173.49-17.9 173.49-16.4Q173.49-10.9 175.86-8.22 178.24-5.55 183.14-5.55L183.14-5.55Q187.19-5.55 189.84-7.48 192.49-9.4 192.54-12.7L192.54-12.7 182.14-12.7 182.14-18.65 199.79-18.65 199.79 0 194.79 0 194.14-3.8Q191.74-1.5 189.09-0.45 186.44 0.6 182.64 0.6L182.64 0.6ZM217.23 0.6Q210.88 0.6 207.76-2.75 204.63-6.1 204.63-13.15L204.63-13.15Q204.63-20.2 207.76-23.55 210.88-26.9 217.23-26.9L217.23-26.9Q223.08-26.9 225.98-23.53 228.88-20.15 228.88-13.15L228.88-13.15 228.88-11.55 211.58-11.55Q211.68-8.05 212.98-6.38 214.28-4.7 217.33-4.7L217.33-4.7Q219.48-4.7 220.81-5.9 222.13-7.1 222.13-9.3L222.13-9.3 228.88-9.3Q228.88-4.35 225.68-1.88 222.48 0.6 217.23 0.6L217.23 0.6ZM211.68-16.1L221.78-16.1Q221.78-21.55 217.23-21.55L217.23-21.55Q214.63-21.55 213.31-20.2 211.98-18.85 211.68-16.1L211.68-16.1ZM234.18 0L234.18-26.3 240.03-26.3 240.53-22.85 240.88-22.85Q243.78-26.9 248.38-26.9L248.38-26.9Q253.38-26.9 255.28-22.85L255.28-22.85 255.68-22.85Q258.68-26.9 263.48-26.9L263.48-26.9Q267.23-26.9 269.46-24.7 271.68-22.5 271.68-17.65L271.68-17.65 271.68 0 264.83 0 264.83-16.2Q264.83-20.85 260.98-20.85L260.98-20.85Q258.98-20.85 257.68-19.23 256.38-17.6 256.38-15.2L256.38-15.2 256.38 0 249.53 0 249.53-16.2Q249.53-20.85 245.68-20.85L245.68-20.85Q243.68-20.85 242.36-19.23 241.03-17.6 241.03-15.2L241.03-15.2 241.03 0 234.18 0Z" fill="#028502" data-fill-palette-color="primary"></path></g></svg></g></svg></g><g transform="matrix(1,0,0,1,0,67.06535889272115)"><svg viewBox="0 0 300.5952 25.61039499682769" height="25.61039499682769" width="300.5952"><g transform="matrix(1,0,0,1,0,0)"><svg width="300.5952" viewBox="4.05 -37 551.6 47" height="25.61039499682769" data-palette-color="#2ecc40"><path d="M7.05 0L7.05 0Q5.85 0 4.95-0.73 4.05-1.45 4.05-2.55L4.05-2.55 4.05-32.45Q4.05-33.55 4.8-34.27 5.55-35 6.6-35L6.6-35 20.7-35Q23.4-35 25.65-33.68 27.9-32.35 29.28-30.03 30.65-27.7 30.65-24.7L30.65-24.7Q30.65-22.7 29.85-20.88 29.05-19.05 27.7-17.65 26.35-16.25 24.65-15.55L24.65-15.55 24.1-16.5Q25.65-15.95 26.8-14.93 27.95-13.9 28.63-12.53 29.3-11.15 29.35-9.4L29.35-9.4Q29.5-7.85 29.63-6.83 29.75-5.8 30-5.15 30.25-4.5 30.9-4.15L30.9-4.15Q31.8-3.65 32.02-2.65 32.25-1.65 31.6-0.85L31.6-0.85Q31.15-0.25 30.48-0.08 29.8 0.1 29.1-0.03 28.4-0.15 27.9-0.4L27.9-0.4Q27.1-0.9 26.28-1.83 25.45-2.75 24.95-4.4 24.45-6.05 24.45-8.75L24.45-8.75Q24.45-10 24.05-10.9 23.65-11.8 22.95-12.38 22.25-12.95 21.3-13.23 20.35-13.5 19.2-13.5L19.2-13.5 8.6-13.5 9.3-14.5 9.3-2.55Q9.3-1.45 8.7-0.73 8.1 0 7.05 0ZM9.3-16.8L8.65-17.85 20.6-17.85Q21.75-17.9 22.83-18.78 23.9-19.65 24.58-21.15 25.25-22.65 25.25-24.55L25.25-24.55Q25.25-26.95 23.83-28.58 22.4-30.2 20.45-30.2L20.45-30.2 8.75-30.2 9.3-31.5 9.3-16.8ZM49.3 0.5L49.3 0.5Q45.2 0.5 42.12-1.23 39.05-2.95 37.37-5.98 35.7-9 35.7-12.9L35.7-12.9Q35.7-17.3 37.47-20.43 39.25-23.55 42.12-25.23 45-26.9 48.2-26.9L48.2-26.9Q50.6-26.9 52.82-25.93 55.05-24.95 56.75-23.23 58.45-21.5 59.45-19.18 60.45-16.85 60.5-14.1L60.5-14.1Q60.45-13.1 59.7-12.45 58.95-11.8 57.95-11.8L57.95-11.8 38.55-11.8 37.35-16.05 56.15-16.05 55.2-15.15 55.2-16.4Q55.05-18.15 54-19.48 52.95-20.8 51.42-21.53 49.9-22.25 48.2-22.25L48.2-22.25Q46.7-22.25 45.3-21.78 43.9-21.3 42.85-20.25 41.8-19.2 41.15-17.48 40.5-15.75 40.5-13.2L40.5-13.2Q40.5-10.45 41.65-8.4 42.8-6.35 44.75-5.23 46.7-4.1 49.1-4.1L49.1-4.1Q50.9-4.1 52.1-4.48 53.3-4.85 54.1-5.4 54.9-5.95 55.5-6.45L55.5-6.45Q56.3-6.9 57-6.9L57-6.9Q57.9-6.9 58.5-6.28 59.1-5.65 59.1-4.8L59.1-4.8Q59.1-3.7 58-2.8L58-2.8Q56.65-1.5 54.27-0.5 51.9 0.5 49.3 0.5ZM87.25-37L87.25-37Q88.3-37 89.02-36.3 89.75-35.6 89.75-34.45L89.75-34.45 89.75-2.55Q89.75-1.45 89.02-0.73 88.3 0 87.25 0L87.25 0Q86.15 0 85.45-0.73 84.75-1.45 84.75-2.55L84.75-2.55 84.75-6.15 85.75-6.1Q85.75-5.2 85.02-4.08 84.3-2.95 83.05-1.9 81.8-0.85 80.1-0.18 78.4 0.5 76.45 0.5L76.45 0.5Q73.05 0.5 70.27-1.28 67.5-3.05 65.9-6.13 64.3-9.2 64.3-13.2L64.3-13.2Q64.3-17.2 65.9-20.28 67.5-23.35 70.22-25.13 72.95-26.9 76.3-26.9L76.3-26.9Q78.4-26.9 80.22-26.2 82.05-25.5 83.4-24.4 84.75-23.3 85.52-22.08 86.3-20.85 86.3-19.75L86.3-19.75 84.75-19.6 84.75-34.45Q84.75-35.55 85.45-36.27 86.15-37 87.25-37ZM77.05-4.1L77.05-4.1Q79.4-4.1 81.17-5.3 82.95-6.5 83.95-8.55 84.95-10.6 84.95-13.2L84.95-13.2Q84.95-15.8 83.95-17.85 82.95-19.9 81.17-21.1 79.4-22.3 77.05-22.3L77.05-22.3Q74.75-22.3 72.95-21.1 71.15-19.9 70.15-17.85 69.15-15.8 69.15-13.2L69.15-13.2Q69.15-10.6 70.15-8.55 71.15-6.5 72.95-5.3 74.75-4.1 77.05-4.1ZM117.09-26.3L117.09-26.3Q118.14-26.3 118.87-25.58 119.59-24.85 119.59-23.75L119.59-23.75 119.59-10.6Q119.59-5.4 116.69-2.48 113.79 0.45 108.49 0.45L108.49 0.45Q103.24 0.45 100.37-2.48 97.49-5.4 97.49-10.6L97.49-10.6 97.49-23.75Q97.49-24.85 98.19-25.58 98.89-26.3 99.99-26.3L99.99-26.3Q101.04-26.3 101.77-25.58 102.49-24.85 102.49-23.75L102.49-23.75 102.49-10.6Q102.49-7.35 104.02-5.75 105.54-4.15 108.49-4.15L108.49-4.15Q111.49-4.15 113.04-5.75 114.59-7.35 114.59-10.6L114.59-10.6 114.59-23.75Q114.59-24.85 115.29-25.58 115.99-26.3 117.09-26.3ZM137.99-26.9L137.99-26.9Q140.69-26.9 142.77-26.33 144.84-25.75 146.04-24.73 147.24-23.7 147.24-22.35L147.24-22.35Q147.24-21.5 146.72-20.78 146.19-20.05 145.24-20.05L145.24-20.05Q144.49-20.05 144.02-20.3 143.54-20.55 143.14-20.9 142.74-21.25 142.14-21.6L142.14-21.6Q141.59-21.9 140.52-22.1 139.44-22.3 138.59-22.3L138.59-22.3Q135.94-22.3 134.02-21.1 132.09-19.9 131.02-17.85 129.94-15.8 129.94-13.2L129.94-13.2Q129.94-10.6 131.02-8.55 132.09-6.5 133.97-5.3 135.84-4.1 138.34-4.1L138.34-4.1Q139.84-4.1 140.81-4.33 141.79-4.55 142.44-4.9L142.44-4.9Q143.24-5.35 143.74-5.83 144.24-6.3 145.19-6.3L145.19-6.3Q146.29-6.3 146.87-5.63 147.44-4.95 147.44-3.95L147.44-3.95Q147.44-2.85 146.12-1.83 144.79-0.8 142.59-0.15 140.39 0.5 137.74 0.5L137.74 0.5Q133.84 0.5 130.97-1.3 128.09-3.1 126.52-6.2 124.94-9.3 124.94-13.2L124.94-13.2Q124.94-17.15 126.59-20.23 128.24-23.3 131.19-25.1 134.14-26.9 137.99-26.9ZM164.29 0.5L164.29 0.5Q160.19 0.5 157.11-1.23 154.04-2.95 152.36-5.98 150.69-9 150.69-12.9L150.69-12.9Q150.69-17.3 152.46-20.43 154.24-23.55 157.11-25.23 159.99-26.9 163.19-26.9L163.19-26.9Q165.59-26.9 167.81-25.93 170.04-24.95 171.74-23.23 173.44-21.5 174.44-19.18 175.44-16.85 175.49-14.1L175.49-14.1Q175.44-13.1 174.69-12.45 173.94-11.8 172.94-11.8L172.94-11.8 153.54-11.8 152.34-16.05 171.14-16.05 170.19-15.15 170.19-16.4Q170.04-18.15 168.99-19.48 167.94-20.8 166.41-21.53 164.89-22.25 163.19-22.25L163.19-22.25Q161.69-22.25 160.29-21.78 158.89-21.3 157.84-20.25 156.79-19.2 156.14-17.48 155.49-15.75 155.49-13.2L155.49-13.2Q155.49-10.45 156.64-8.4 157.79-6.35 159.74-5.23 161.69-4.1 164.09-4.1L164.09-4.1Q165.89-4.1 167.09-4.48 168.29-4.85 169.09-5.4 169.89-5.95 170.49-6.45L170.49-6.45Q171.29-6.9 171.99-6.9L171.99-6.9Q172.89-6.9 173.49-6.28 174.09-5.65 174.09-4.8L174.09-4.8Q174.09-3.7 172.99-2.8L172.99-2.8Q171.64-1.5 169.26-0.5 166.89 0.5 164.29 0.5ZM187.24-0.3L187.24-0.3Q187.24 0.6 186.76 1.78 186.29 2.95 185.51 4.05 184.74 5.15 183.76 5.85 182.79 6.55 181.74 6.55L181.74 6.55Q180.94 6.55 180.34 6.15 179.74 5.75 179.74 4.85L179.74 4.85Q179.74 3.8 180.41 3.6 181.09 3.4 181.64 3.15L181.64 3.15Q182.29 2.8 182.66 2.25 183.04 1.7 183.04 1L183.04 1Q183.04 0.45 182.59 0.05 182.14-0.35 181.39-0.35L181.39-0.35Q181.09-0.35 180.71-0.28 180.34-0.2 180.04 0L180.04 0Q179.59-0.25 179.29-0.6 178.99-0.95 178.99-1.65L178.99-1.65Q178.99-2.6 179.64-3.33 180.29-4.05 181.26-4.48 182.24-4.9 183.09-4.9L183.09-4.9Q184.99-4.9 186.11-3.73 187.24-2.55 187.24-0.3ZM210.73 0L210.73 0Q209.53 0 208.63-0.73 207.73-1.45 207.73-2.55L207.73-2.55 207.73-32.45Q207.73-33.55 208.48-34.27 209.23-35 210.28-35L210.28-35 224.38-35Q227.08-35 229.33-33.68 231.58-32.35 232.96-30.03 234.33-27.7 234.33-24.7L234.33-24.7Q234.33-22.7 233.53-20.88 232.73-19.05 231.38-17.65 230.03-16.25 228.33-15.55L228.33-15.55 227.78-16.5Q229.33-15.95 230.48-14.93 231.63-13.9 232.31-12.53 232.98-11.15 233.03-9.4L233.03-9.4Q233.18-7.85 233.31-6.83 233.43-5.8 233.68-5.15 233.93-4.5 234.58-4.15L234.58-4.15Q235.48-3.65 235.71-2.65 235.93-1.65 235.28-0.85L235.28-0.85Q234.83-0.25 234.16-0.08 233.48 0.1 232.78-0.03 232.08-0.15 231.58-0.4L231.58-0.4Q230.78-0.9 229.96-1.83 229.13-2.75 228.63-4.4 228.13-6.05 228.13-8.75L228.13-8.75Q228.13-10 227.73-10.9 227.33-11.8 226.63-12.38 225.93-12.95 224.98-13.23 224.03-13.5 222.88-13.5L222.88-13.5 212.28-13.5 212.98-14.5 212.98-2.55Q212.98-1.45 212.38-0.73 211.78 0 210.73 0ZM212.98-16.8L212.33-17.85 224.28-17.85Q225.43-17.9 226.51-18.78 227.58-19.65 228.26-21.15 228.93-22.65 228.93-24.55L228.93-24.55Q228.93-26.95 227.51-28.58 226.08-30.2 224.13-30.2L224.13-30.2 212.43-30.2 212.98-31.5 212.98-16.8ZM252.98 0.5L252.98 0.5Q248.88 0.5 245.8-1.23 242.73-2.95 241.05-5.98 239.38-9 239.38-12.9L239.38-12.9Q239.38-17.3 241.15-20.43 242.93-23.55 245.8-25.23 248.68-26.9 251.88-26.9L251.88-26.9Q254.28-26.9 256.5-25.93 258.73-24.95 260.43-23.23 262.13-21.5 263.13-19.18 264.13-16.85 264.18-14.1L264.18-14.1Q264.13-13.1 263.38-12.45 262.63-11.8 261.63-11.8L261.63-11.8 242.23-11.8 241.03-16.05 259.83-16.05 258.88-15.15 258.88-16.4Q258.73-18.15 257.68-19.48 256.63-20.8 255.1-21.53 253.58-22.25 251.88-22.25L251.88-22.25Q250.38-22.25 248.98-21.78 247.58-21.3 246.53-20.25 245.48-19.2 244.83-17.48 244.18-15.75 244.18-13.2L244.18-13.2Q244.18-10.45 245.33-8.4 246.48-6.35 248.43-5.23 250.38-4.1 252.78-4.1L252.78-4.1Q254.58-4.1 255.78-4.48 256.98-4.85 257.78-5.4 258.58-5.95 259.18-6.45L259.18-6.45Q259.98-6.9 260.68-6.9L260.68-6.9Q261.58-6.9 262.18-6.28 262.78-5.65 262.78-4.8L262.78-4.8Q262.78-3.7 261.68-2.8L261.68-2.8Q260.33-1.5 257.95-0.5 255.58 0.5 252.98 0.5ZM289.18-26.3L289.18-26.3Q290.23-26.3 290.95-25.58 291.68-24.85 291.68-23.75L291.68-23.75 291.68-10.6Q291.68-5.4 288.78-2.48 285.88 0.45 280.58 0.45L280.58 0.45Q275.33 0.45 272.45-2.48 269.58-5.4 269.58-10.6L269.58-10.6 269.58-23.75Q269.58-24.85 270.28-25.58 270.98-26.3 272.08-26.3L272.08-26.3Q273.13-26.3 273.85-25.58 274.58-24.85 274.58-23.75L274.58-23.75 274.58-10.6Q274.58-7.35 276.1-5.75 277.63-4.15 280.58-4.15L280.58-4.15Q283.58-4.15 285.13-5.75 286.68-7.35 286.68-10.6L286.68-10.6 286.68-23.75Q286.68-24.85 287.38-25.58 288.08-26.3 289.18-26.3ZM297.07-4.1L297.07-4.1Q296.62-4.8 296.67-5.73 296.72-6.65 297.72-7.3L297.72-7.3Q298.42-7.75 299.2-7.68 299.97-7.6 300.67-6.9L300.67-6.9Q302.07-5.35 303.8-4.45 305.52-3.55 307.97-3.55L307.97-3.55Q308.97-3.6 310.02-3.88 311.07-4.15 311.82-4.88 312.57-5.6 312.57-7L312.57-7Q312.57-8.25 311.77-9 310.97-9.75 309.67-10.23 308.37-10.7 306.87-11.1L306.87-11.1Q305.27-11.55 303.65-12.1 302.02-12.65 300.72-13.53 299.42-14.4 298.6-15.8 297.77-17.2 297.77-19.25L297.77-19.25Q297.77-21.6 299.1-23.3 300.42-25 302.55-25.95 304.67-26.9 307.17-26.9L307.17-26.9Q308.62-26.9 310.22-26.53 311.82-26.15 313.32-25.35 314.82-24.55 315.92-23.25L315.92-23.25Q316.42-22.6 316.5-21.7 316.57-20.8 315.67-20.1L315.67-20.1Q315.07-19.6 314.22-19.65 313.37-19.7 312.82-20.2L312.82-20.2Q311.87-21.4 310.37-22.08 308.87-22.75 306.97-22.75L306.97-22.75Q306.02-22.75 305-22.48 303.97-22.2 303.27-21.5 302.57-20.8 302.57-19.45L302.57-19.45Q302.57-18.2 303.4-17.45 304.22-16.7 305.57-16.2 306.92-15.7 308.52-15.3L308.52-15.3Q310.07-14.9 311.6-14.35 313.12-13.8 314.35-12.93 315.57-12.05 316.35-10.68 317.12-9.3 317.12-7.2L317.12-7.2Q317.12-4.75 315.7-3.03 314.27-1.3 312.1-0.4 309.92 0.5 307.52 0.5L307.52 0.5Q304.67 0.5 301.85-0.53 299.02-1.55 297.07-4.1ZM334.52 0.5L334.52 0.5Q330.42 0.5 327.35-1.23 324.27-2.95 322.6-5.98 320.92-9 320.92-12.9L320.92-12.9Q320.92-17.3 322.7-20.43 324.47-23.55 327.35-25.23 330.22-26.9 333.42-26.9L333.42-26.9Q335.82-26.9 338.05-25.93 340.27-24.95 341.97-23.23 343.67-21.5 344.67-19.18 345.67-16.85 345.72-14.1L345.72-14.1Q345.67-13.1 344.92-12.45 344.17-11.8 343.17-11.8L343.17-11.8 323.77-11.8 322.57-16.05 341.37-16.05 340.42-15.15 340.42-16.4Q340.27-18.15 339.22-19.48 338.17-20.8 336.65-21.53 335.12-22.25 333.42-22.25L333.42-22.25Q331.92-22.25 330.52-21.78 329.12-21.3 328.07-20.25 327.02-19.2 326.37-17.48 325.72-15.75 325.72-13.2L325.72-13.2Q325.72-10.45 326.87-8.4 328.02-6.35 329.97-5.23 331.92-4.1 334.32-4.1L334.32-4.1Q336.12-4.1 337.32-4.48 338.52-4.85 339.32-5.4 340.12-5.95 340.72-6.45L340.72-6.45Q341.52-6.9 342.22-6.9L342.22-6.9Q343.12-6.9 343.72-6.28 344.32-5.65 344.32-4.8L344.32-4.8Q344.32-3.7 343.22-2.8L343.22-2.8Q341.87-1.5 339.5-0.5 337.12 0.5 334.52 0.5ZM357.47-0.3L357.47-0.3Q357.47 0.6 356.99 1.78 356.52 2.95 355.74 4.05 354.97 5.15 353.99 5.85 353.02 6.55 351.97 6.55L351.97 6.55Q351.17 6.55 350.57 6.15 349.97 5.75 349.97 4.85L349.97 4.85Q349.97 3.8 350.64 3.6 351.32 3.4 351.87 3.15L351.87 3.15Q352.52 2.8 352.89 2.25 353.27 1.7 353.27 1L353.27 1Q353.27 0.45 352.82 0.05 352.37-0.35 351.62-0.35L351.62-0.35Q351.32-0.35 350.94-0.28 350.57-0.2 350.27 0L350.27 0Q349.82-0.25 349.52-0.6 349.22-0.95 349.22-1.65L349.22-1.65Q349.22-2.6 349.87-3.33 350.52-4.05 351.49-4.48 352.47-4.9 353.32-4.9L353.32-4.9Q355.22-4.9 356.34-3.73 357.47-2.55 357.47-0.3ZM380.96 0L380.96 0Q379.76 0 378.86-0.73 377.96-1.45 377.96-2.55L377.96-2.55 377.96-32.45Q377.96-33.55 378.71-34.27 379.46-35 380.51-35L380.51-35 394.61-35Q397.31-35 399.56-33.68 401.81-32.35 403.19-30.03 404.56-27.7 404.56-24.7L404.56-24.7Q404.56-22.7 403.76-20.88 402.96-19.05 401.61-17.65 400.26-16.25 398.56-15.55L398.56-15.55 398.01-16.5Q399.56-15.95 400.71-14.93 401.86-13.9 402.54-12.53 403.21-11.15 403.26-9.4L403.26-9.4Q403.41-7.85 403.54-6.83 403.66-5.8 403.91-5.15 404.16-4.5 404.81-4.15L404.81-4.15Q405.71-3.65 405.94-2.65 406.16-1.65 405.51-0.85L405.51-0.85Q405.06-0.25 404.39-0.08 403.71 0.1 403.01-0.03 402.31-0.15 401.81-0.4L401.81-0.4Q401.01-0.9 400.19-1.83 399.36-2.75 398.86-4.4 398.36-6.05 398.36-8.75L398.36-8.75Q398.36-10 397.96-10.9 397.56-11.8 396.86-12.38 396.16-12.95 395.21-13.23 394.26-13.5 393.11-13.5L393.11-13.5 382.51-13.5 383.21-14.5 383.21-2.55Q383.21-1.45 382.61-0.73 382.01 0 380.96 0ZM383.21-16.8L382.56-17.85 394.51-17.85Q395.66-17.9 396.74-18.78 397.81-19.65 398.49-21.15 399.16-22.65 399.16-24.55L399.16-24.55Q399.16-26.95 397.74-28.58 396.31-30.2 394.36-30.2L394.36-30.2 382.66-30.2 383.21-31.5 383.21-16.8ZM423.21 0.5L423.21 0.5Q419.11 0.5 416.04-1.23 412.96-2.95 411.29-5.98 409.61-9 409.61-12.9L409.61-12.9Q409.61-17.3 411.39-20.43 413.16-23.55 416.04-25.23 418.91-26.9 422.11-26.9L422.11-26.9Q424.51-26.9 426.74-25.93 428.96-24.95 430.66-23.23 432.36-21.5 433.36-19.18 434.36-16.85 434.41-14.1L434.41-14.1Q434.36-13.1 433.61-12.45 432.86-11.8 431.86-11.8L431.86-11.8 412.46-11.8 411.26-16.05 430.06-16.05 429.11-15.15 429.11-16.4Q428.96-18.15 427.91-19.48 426.86-20.8 425.34-21.53 423.81-22.25 422.11-22.25L422.11-22.25Q420.61-22.25 419.21-21.78 417.81-21.3 416.76-20.25 415.71-19.2 415.06-17.48 414.41-15.75 414.41-13.2L414.41-13.2Q414.41-10.45 415.56-8.4 416.71-6.35 418.66-5.23 420.61-4.1 423.01-4.1L423.01-4.1Q424.81-4.1 426.01-4.48 427.21-4.85 428.01-5.4 428.81-5.95 429.41-6.45L429.41-6.45Q430.21-6.9 430.91-6.9L430.91-6.9Q431.81-6.9 432.41-6.28 433.01-5.65 433.01-4.8L433.01-4.8Q433.01-3.7 431.91-2.8L431.91-2.8Q430.56-1.5 428.19-0.5 425.81 0.5 423.21 0.5ZM451.26-26.9L451.26-26.9Q453.96-26.9 456.03-26.33 458.11-25.75 459.31-24.73 460.51-23.7 460.51-22.35L460.51-22.35Q460.51-21.5 459.98-20.78 459.46-20.05 458.51-20.05L458.51-20.05Q457.76-20.05 457.28-20.3 456.81-20.55 456.41-20.9 456.01-21.25 455.41-21.6L455.41-21.6Q454.86-21.9 453.78-22.1 452.71-22.3 451.86-22.3L451.86-22.3Q449.21-22.3 447.28-21.1 445.36-19.9 444.28-17.85 443.21-15.8 443.21-13.2L443.21-13.2Q443.21-10.6 444.28-8.55 445.36-6.5 447.23-5.3 449.11-4.1 451.61-4.1L451.61-4.1Q453.11-4.1 454.08-4.33 455.06-4.55 455.71-4.9L455.71-4.9Q456.51-5.35 457.01-5.83 457.51-6.3 458.46-6.3L458.46-6.3Q459.56-6.3 460.13-5.63 460.71-4.95 460.71-3.95L460.71-3.95Q460.71-2.85 459.38-1.83 458.06-0.8 455.86-0.15 453.66 0.5 451.01 0.5L451.01 0.5Q447.11 0.5 444.23-1.3 441.36-3.1 439.78-6.2 438.21-9.3 438.21-13.2L438.21-13.2Q438.21-17.15 439.86-20.23 441.51-23.3 444.46-25.1 447.41-26.9 451.26-26.9ZM485.11-26.5L485.11-26.5Q486.21-26.5 486.91-25.78 487.61-25.05 487.61-23.95L487.61-23.95 487.61-2.45Q487.61 1.95 485.93 4.7 484.26 7.45 481.43 8.72 478.61 10 475.06 10L475.06 10Q473.26 10 471.46 9.68 469.66 9.35 468.51 8.75L468.51 8.75Q467.31 8.2 466.81 7.4 466.31 6.6 466.66 5.65L466.66 5.65Q467.01 4.45 467.86 4.03 468.71 3.6 469.61 3.95L469.61 3.95Q470.46 4.3 471.86 4.85 473.26 5.4 475.06 5.4L475.06 5.4Q477.51 5.4 479.21 4.6 480.91 3.8 481.78 2.1 482.66 0.4 482.66-2.3L482.66-2.3 482.66-5.75 483.46-4.55Q482.66-2.9 481.36-1.8 480.06-0.7 478.28-0.1 476.51 0.5 474.36 0.5L474.36 0.5Q471.61 0.5 469.63-0.73 467.66-1.95 466.61-4.13 465.56-6.3 465.56-9.1L465.56-9.1 465.56-23.95Q465.56-25.05 466.26-25.78 466.96-26.5 468.06-26.5L468.06-26.5Q469.11-26.5 469.83-25.78 470.56-25.05 470.56-23.95L470.56-23.95 470.56-10.45Q470.56-7.15 472.01-5.63 473.46-4.1 476.31-4.1L476.31-4.1Q478.21-4.1 479.61-4.9 481.01-5.7 481.81-7.13 482.61-8.55 482.61-10.45L482.61-10.45 482.61-23.95Q482.61-25.05 483.33-25.78 484.06-26.5 485.11-26.5ZM505.8-26.9L505.8-26.9Q508.5-26.9 510.58-26.33 512.65-25.75 513.85-24.73 515.05-23.7 515.05-22.35L515.05-22.35Q515.05-21.5 514.53-20.78 514-20.05 513.05-20.05L513.05-20.05Q512.3-20.05 511.83-20.3 511.35-20.55 510.95-20.9 510.55-21.25 509.95-21.6L509.95-21.6Q509.4-21.9 508.33-22.1 507.25-22.3 506.4-22.3L506.4-22.3Q503.75-22.3 501.83-21.1 499.9-19.9 498.83-17.85 497.75-15.8 497.75-13.2L497.75-13.2Q497.75-10.6 498.83-8.55 499.9-6.5 501.78-5.3 503.65-4.1 506.15-4.1L506.15-4.1Q507.65-4.1 508.63-4.33 509.6-4.55 510.25-4.9L510.25-4.9Q511.05-5.35 511.55-5.83 512.05-6.3 513-6.3L513-6.3Q514.1-6.3 514.68-5.63 515.25-4.95 515.25-3.95L515.25-3.95Q515.25-2.85 513.93-1.83 512.6-0.8 510.4-0.15 508.2 0.5 505.55 0.5L505.55 0.5Q501.65 0.5 498.78-1.3 495.9-3.1 494.33-6.2 492.75-9.3 492.75-13.2L492.75-13.2Q492.75-17.15 494.4-20.23 496.05-23.3 499-25.1 501.95-26.9 505.8-26.9ZM525.5-34.45L525.5-2.55Q525.5-1.45 524.77-0.73 524.05 0 523 0L523 0Q521.95 0 521.23-0.73 520.5-1.45 520.5-2.55L520.5-2.55 520.5-34.45Q520.5-35.55 521.25-36.27 522-37 523.05-37L523.05-37Q524.15-37 524.83-36.27 525.5-35.55 525.5-34.45L525.5-34.45ZM544.45 0.5L544.45 0.5Q540.35 0.5 537.27-1.23 534.2-2.95 532.52-5.98 530.85-9 530.85-12.9L530.85-12.9Q530.85-17.3 532.62-20.43 534.4-23.55 537.27-25.23 540.15-26.9 543.35-26.9L543.35-26.9Q545.75-26.9 547.97-25.93 550.2-24.95 551.9-23.23 553.6-21.5 554.6-19.18 555.6-16.85 555.65-14.1L555.65-14.1Q555.6-13.1 554.85-12.45 554.1-11.8 553.1-11.8L553.1-11.8 533.7-11.8 532.5-16.05 551.3-16.05 550.35-15.15 550.35-16.4Q550.2-18.15 549.15-19.48 548.1-20.8 546.57-21.53 545.05-22.25 543.35-22.25L543.35-22.25Q541.85-22.25 540.45-21.78 539.05-21.3 538-20.25 536.95-19.2 536.3-17.48 535.65-15.75 535.65-13.2L535.65-13.2Q535.65-10.45 536.8-8.4 537.95-6.35 539.9-5.23 541.85-4.1 544.25-4.1L544.25-4.1Q546.05-4.1 547.25-4.48 548.45-4.85 549.25-5.4 550.05-5.95 550.65-6.45L550.65-6.45Q551.45-6.9 552.15-6.9L552.15-6.9Q553.05-6.9 553.65-6.28 554.25-5.65 554.25-4.8L554.25-4.8Q554.25-3.7 553.15-2.8L553.15-2.8Q551.8-1.5 549.42-0.5 547.05 0.5 544.45 0.5Z" opacity="1" transform="matrix(1,0,0,1,0,0)" fill="#2ecc40" class="slogan-text-1" data-fill-palette-color="secondary" id="text-1"></path></svg></g></svg></g></svg></g></svg></g><g transform="matrix(1,0,0,1,0,0.23168938472386458)"><svg viewBox="0 0 96.27588454206085 92.67575388954884" height="92.67575388954884" width="96.27588454206085"><g><svg version="1.0" xmlns="http://www.w3.org/2000/svg" xmlns:xlink="http://www.w3.org/1999/xlink" x="0" y="0" viewBox="0 0 100.001 96.26157275823242" enable-background="new 0 0 100 96.261" xml:space="preserve" width="96.27588454206085" height="92.67575388954884" class="icon-icon-0" data-fill-palette-color="accent" id="icon-0"><path d="M29.526 52.639l4.475 2.738c0.755 0 1.136-0.312 1.136-0.936 0-0.399-0.182-0.954-0.534-1.669l-9.887-18.571L2.804 34.737c-0.98 0.046-1.469 0.557-1.469 1.536 0 0.223 0.311 0.534 0.935 0.935l4.543 2.738-4.81 7.48C0.668 49.565 0 51.327 0 52.706c0 1.25 0.442 2.652 1.335 4.209l14.897 25.984c-0.357-1.646-0.534-3.206-0.534-4.677 0-2.623 0.821-5.209 2.47-7.748L29.526 52.639 29.526 52.639z" fill="#196f06" data-fill-palette-color="accent"></path><path d="M35.271 37.476l12.291-19.038c-4.59-10.464-9.466-15.7-14.63-15.7-3.119 0-5.208 0.871-6.277 2.605L15.029 23.916 35.271 37.476 35.271 37.476z" fill="#196f06" data-fill-palette-color="accent"></path><path d="M25.251 89.044h23.714V64.396H26.119c-2.806 4.007-4.566 6.728-5.277 8.15-1.16 2.27-1.736 4.589-1.736 6.945C19.106 85.862 21.152 89.044 25.251 89.044L25.251 89.044z" fill="#196f06" data-fill-palette-color="accent"></path><path d="M74.083 32.933l10.553-17.77c0.355-0.621 0.534-1.269 0.534-1.936 0-0.802-0.267-1.203-0.8-1.203 0.084 0-0.268 0.134-1.069 0.401l-4.81 2.204-4.408-8.75C72.121 1.961 68.204 0 62.325 0H34.871c3.339 1.026 5.609 2.027 6.812 3.006 2.807 2.228 5.678 6.413 8.617 12.558l5.479 11.491-4.077 1.938c-0.4 0.18-0.6 0.534-0.6 1.068 0 0.668 0.421 1.05 1.269 1.136L74.083 32.933 74.083 32.933z" fill="#196f06" data-fill-palette-color="accent"></path><path d="M84.635 85.372L100 57.449c-2.271 2.585-4.743 4.322-7.414 5.211-2.138 0.714-5.193 1.069-9.154 1.069h-17.1v-3.542c0-1.379-0.335-2.071-1.003-2.071-0.491 0-0.849 0.182-1.068 0.535l-10.82 18.771 11.222 17.236c0.847 1.292 1.579 1.803 2.204 1.534 0.621-0.177 0.936-0.509 0.936-1v-5.88h9.485C80.762 89.312 83.21 88 84.635 85.372L84.635 85.372z" fill="#196f06" data-fill-palette-color="accent"></path><path d="M77.956 60.187h10.222c2.447 0 4.985-1.068 7.614-3.205 2.806-2.226 4.209-4.587 4.209-7.083 0-1.154-0.382-2.291-1.137-3.406L86.708 27.923 65.796 40.083 77.956 60.187 77.956 60.187z" fill="#196f06" data-fill-palette-color="accent"></path></svg></g></svg></g></svg></g><defs></defs></svg><rect width="395.52" height="70.53025575431869" fill="none" stroke="none" visibility="hidden"></rect></g></svg></g></svg>